{"title":"The Walking Dead S04E03 HDTV 480p x264 AAC E-Subs [GWC].mp4","uid":9110801,"size":153856506,"categoryP":"video","categoryS":"tv_shows","magnet":"?xt=urn:btih:0cd6457cb7fad3298a614333ef0f27b307e4bb18&amp;dn=The+Walking+Dead+S04E03+HDTV+480p+x264+AAC+E-Subs+%5BGWC%5D.mp4&amp;tr=udp%3A%2F%2Ftracker.openbittorrent.com%3A80&amp;tr=udp%3A%2F%2Fopen.demonii.com%3A1337&amp;tr=udp%3A%2F%2Ftracker.coppersurfer.tk%3A6969&amp;tr=udp%3A%2F%2Fexodus.desync.com%3A6969","seeders":1,"leechers":0,"uploader":"canc232","files":1,"time":1382940795,"description":"The Walking Dead S04E03 HDTV 480p x264 AAC E-Subs [GWC].mp4\n\n\nSCREENS :\n &lt;a href=&quot;\nhttp://s20.postimg.org/7eyashd6l/The_Walking_Dead_S04_E03_HDTV_480p_x264_AAC_E_Sub.jpg&quot; rel=&quot;nofollow&quot; target=&quot;_NEW&quot;&gt;\nhttp://s20.postimg.org/7eyashd6l/The_Walking_Dead_S04_E03_HDTV_480p_x264_AAC_E_Sub.jpg&lt;/a&gt;\n &lt;a href=&quot;\nhttp://s20.postimg.org/7qfr58tml/The_Walking_Dead_S04_E03_HDTV_480p_x264_AAC_E_Sub.jpg&quot; rel=&quot;nofollow&quot; target=&quot;_NEW&quot;&gt;\nhttp://s20.postimg.org/7qfr58tml/The_Walking_Dead_S04_E03_HDTV_480p_x264_AAC_E_Sub.jpg&lt;/a&gt;\n &lt;a href=&quot;\nhttp://s20.postimg.org/o05x854al/The_Walking_Dead_S04_E03_HDTV_480p_x264_AAC_E_Sub.jpg&quot; rel=&quot;nofollow&quot; target=&quot;_NEW&quot;&gt;\nhttp://s20.postimg.org/o05x854al/The_Walking_Dead_S04_E03_HDTV_480p_x264_AAC_E_Sub.jpg&lt;/a&gt;\n\n\nMEDIA INFO :\n\nGeneral \nFormat : MPEG-4 \nFile size : 147 MiB \nDuration : 43mn 12s \nOverall bit rate mode : Variable \nOverall bit rate : 475 Kbps \n\nVideo \nFormat : AVC \nFormat profile : &lt;a class=&quot;__cf_email__&quot; href=&quot;/cdn-cgi/l/email-protection&quot; data-cfemail=&quot;662e0f010e262a554856&quot;&gt;[email&amp;#160;protected]&lt;/a&gt;&lt;script cf-hash='f9e31' type=&quot;text/javascript&quot;&gt;\n/* &lt;![CDATA[ */!function(){try{var t=&quot;currentScript&quot;in document?document.currentScript:function(){for(var t=document.getElementsByTagName(&quot;script&quot;),e=t.length;e--;)if(t[e].getAttribute(&quot;cf-hash&quot;))return t[e]}();if(t&amp;&amp;t.previousSibling){var e,r,n,i,c=t.previousSibling,a=c.getAttribute(&quot;data-cfemail&quot;);if(a){for(e=&quot;&quot;,r=parseInt(a.substr(0,2),16),n=2;a.length-n;n+=2)i=parseInt(a.substr(n,2),16)^r,e+=String.fromCharCode(i);e=document.createTextNode(e),c.parentNode.replaceChild(e,c)}}}catch(u){}}();/* ]]&gt; */&lt;/script&gt; \nFormat settings, CABAC : Yes \nFormat settings, ReFrames : 4 frames \nDuration : 43mn 12s \nBit rate : 412 Kbps \nWidth : 720 pixels \nHeight : 404 pixels \nDisplay aspect ratio : 16:9 \nFrame rate : 23.976 fps \nStream size : 127 MiB (87%) \nTitle : The Walking Dead S04E03 HDTV 480p x264 AAC E-Subs [GWC] \nWriting library : x264 core\n\nAudio \nFormat : AAC \nFormat profile : HE-AAC / LC \nDuration : 43mn 12s \nBit rate mode : Variable \nChannel(s) : 2 channels \nSampling rate : 44.1 KHz\nStream size : 18.5 MiB (13%) \nLanguage : English \n\nText \nFormat : Timed Text \nDuration : 42mn 47s \nStream size : 15.5 KiB (0%) \nTitle : English Subtitle by n17t01 \nLanguage : English","torrent":{"xt":"urn:btih:0cd6457cb7fad3298a614333ef0f27b307e4bb18","amp;dn":"The+Walking+Dead+S04E03+HDTV+480p+x264+AAC+E-Subs+%5BGWC%5D.mp4","amp;tr":["udp%3A%2F%2Ftracker.openbittorrent.com%3A80","udp%3A%2F%2Fopen.demonii.com%3A1337","udp%3A%2F%2Ftracker.coppersurfer.tk%3A6969","udp%3A%2F%2Fexodus.desync.com%3A6969"],"infoHash":"0cd6457cb7fad3298a614333ef0f27b307e4bb18","infoHashBuffer":{"type":"Buffer","data":[12,214,69,124,183,250,211,41,138,97,67,51,239,15,39,179,7,228,187,24]},"announce":[],"urlList":[]}}